<svg  style="position: absolute; width: 20; height: 20;" version="1.1" xmlns="http://www.w3.org/2000/svg" xmlns:xlink="http://www.w3.org/1999/xlink">
<defs>
<symbol id="icon-setting1" viewBox="0 0 32 32">
<path d="M16 30.173c-0.893 0-1.8-0.2-2.507-0.613l-7.333-4.227c-2.987-2.013-3.173-2.32-3.173-5.48v-7.707c0-3.16 0.173-3.467 3.107-5.453l7.387-4.267c1.4-0.813 3.6-0.813 5 0l7.36 4.24c2.987 2.013 3.173 2.32 3.173 5.48v7.693c0 3.16-0.173 3.467-3.107 5.453l-7.387 4.267c-0.72 0.413-1.627 0.613-2.52 0.613zM16 3.826c-0.56 0-1.107 0.107-1.493 0.333l-7.333 4.24c-2.173 1.467-2.173 1.467-2.173 3.747v7.693c0 2.28 0 2.28 2.227 3.787l7.28 4.2c0.787 0.453 2.213 0.453 3 0l7.333-4.24c2.16-1.467 2.16-1.467 2.16-3.747v-7.693c0-2.28 0-2.28-2.227-3.787l-7.28-4.2c-0.387-0.227-0.933-0.333-1.493-0.333z"></path>
<path d="M16 21c-2.76 0-5-2.24-5-5s2.24-5 5-5c2.76 0 5 2.24 5 5s-2.24 5-5 5zM16 13c-1.653 0-3 1.347-3 3s1.347 3 3 3c1.653 0 3-1.347 3-3s-1.347-3-3-3z"></path>
</symbol>
<symbol id="icon-search" viewBox="0 0 32 32">
<path d="M31.008 27.231l-7.58-6.447c-0.784-0.705-1.622-1.029-2.299-0.998 1.789-2.096 2.87-4.815 2.87-7.787 0-6.627-5.373-12-12-12s-12 5.373-12 12 5.373 12 12 12c2.972 0 5.691-1.081 7.787-2.87-0.031 0.677 0.293 1.515 0.998 2.299l6.447 7.58c1.104 1.226 2.907 1.33 4.007 0.23s0.997-2.903-0.23-4.007zM12 20c-4.418 0-8-3.582-8-8s3.582-8 8-8 8 3.582 8 8-3.582 8-8 8z"></path>
</symbol>
</defs>
</svg>
